inDegrees=no
num_controls=7
num_derivatives=13
num_iterations=163
num_multipliers=7
num_parameters=0
num_slacks=7
num_states=26
objective=0.493911
objective_accelerations=0.010943
objective_balance=0.003940
objective_effort=0.016784
objective_height=0.361371
objective_ligament=0.100873
solver_duration=2232.725322
status=Solve_Succeeded
success=true
DataType=double
version=3
OpenSimVersion=4.5
endheader
time	/jointset/ground_pelvis/pelvis_tilt/value	/jointset/ground_pelvis/pelvis_tx/value	/jointset/ground_pelvis/pelvis_ty/value	/jointset/hip_l/hip_flexion_l/value	/jointset/hip_l/hip_adduction_l/value	/jointset/hip_l/hip_rotation_l/value	/jointset/back/lumbar_extension/value	/jointset/patellofemoral_l/patellar_flexion_l/value	/jointset/knee_l/knee_flexion_l/value	/jointset/knee_l/knee_adduction_l/value	/jointset/knee_l/knee_rotation_l/value	/jointset/ankle_l/ankle_angle_l/value	/jointset/subtalar_l/subtalar_angle_l/value	/jointset/ground_pelvis/pelvis_tilt/speed	/jointset/ground_pelvis/pelvis_tx/speed	/jointset/ground_pelvis/pelvis_ty/speed	/jointset/hip_l/hip_flexion_l/speed	/jointset/hip_l/hip_adduction_l/speed	/jointset/hip_l/hip_rotation_l/speed	/jointset/back/lumbar_extension/speed	/jointset/patellofemoral_l/patellar_flexion_l/speed	/jointset/knee_l/knee_flexion_l/speed	/jointset/knee_l/knee_adduction_l/speed	/jointset/knee_l/knee_rotation_l/speed	/jointset/ankle_l/ankle_angle_l/speed	/jointset/subtalar_l/subtalar_angle_l/speed	/forceset/tau_hip_flexion_l	/forceset/tau_hip_adduction_l	/forceset/tau_hip_rotation_l	/forceset/tau_knee_flexion_l	/forceset/tau_ankle_angle_l	/forceset/tau_subtalar_angle_l	/forceset/tau_lumbar_extension	lambda_cid13_p0	lambda_cid13_p1	lambda_cid13_p2	lambda_cid13_p3	lambda_cid13_p4	lambda_cid13_p5	lambda_cid14_p0	/jointset/ground_pelvis/pelvis_tilt/accel	/jointset/ground_pelvis/pelvis_tx/accel	/jointset/ground_pelvis/pelvis_ty/accel	/jointset/hip_l/hip_flexion_l/accel	/jointset/hip_l/hip_adduction_l/accel	/jointset/hip_l/hip_rotation_l/accel	/jointset/back/lumbar_extension/accel	/jointset/patellofemoral_l/patellar_flexion_l/accel	/jointset/knee_l/knee_flexion_l/accel	/jointset/knee_l/knee_adduction_l/accel	/jointset/knee_l/knee_rotation_l/accel	/jointset/ankle_l/ankle_angle_l/accel	/jointset/subtalar_l/subtalar_angle_l/accel	gamma_cid13_p0	gamma_cid13_p1	gamma_cid13_p2	gamma_cid13_p3	gamma_cid13_p4	gamma_cid13_p5	gamma_cid14_p0
1.5	0.07767970590302048	0.001057040171817572	0.9224457288459478	0.2999768882943572	-0.2381706370358632	-0.313328596328225	-0.763221620142659	0.3023118337122429	0.3023118337122327	-0.03588718039578321	-0.1744791061864235	-0.01685767682707464	0.05436978251963856	0.2435428064613735	0.2087138889139392	0.1139075610385057	-0.9367780452997799	0.1164783530197754	-0.2293209255538466	0.8460618601828801	-0.6951095860802475	-0.6951095860802559	0.0179799030737177	-0.0004164583280547587	0.01136106743231659	0.1285360846034081	-0.1427821551178154	0.01810663969660989	-0.007523623832004895	-0.1043464659013719	0.09417402546494889	0.03008846319647167	0.2462460187854481	-14.16095942482349	-12.83318084226821	4.156259789508339	-0.5320809753487977	-692.7675766554349	-80.02385261432009	-23.41165698318181	-0.2800094709676305	0.3197498560914548	-0.1332310869408705	-0.1824522022839759	-0.02940650284035036	-0.03580146913483143	1.344660529247716	-0.2825067227698325	-0.2825067227698336	-0.3353189520538687	-0.004320531356574229	0.1414341456649033	0.03038845739912435	1.913343680548889e-08	1.068094912524383e-08	-6.38370452319497e-08	-5.956190750896984e-09	3.399939848877322e-08	-1.104869324606779e-11	1.260147795768541e-08
1.51	0.08010103451510447	0.00315997517561407	0.9235779783059411	0.2906006644036955	-0.2370076932284822	-0.3156232707311093	-0.7546949509978342	0.2953473386560824	0.2953473386560833	-0.03572473548855955	-0.1744834522923997	-0.01673703656826735	0.0556562636566112	0.2407034571703224	0.211853023873587	0.1125241631438205	-0.9383682877168907	0.1160876739403508	-0.2295855382007134	0.8591666726125747	-0.6976934142580935	-0.6976934142580952	0.01449045831195472	-0.0004498923855405937	0.01277649862184714	0.1287403063318625	-0.1366853356660775	0.01665738003575273	-0.007461378907006449	-0.105534165913486	0.09564306016090274	0.02873494838273139	0.2406491499902652	-13.66548224078676	-12.34365558365617	4.091410922497897	-0.5699072018031216	-691.2252332557609	-79.86979420351543	-23.34654690065341	-0.2888148726586065	0.3079808262727319	-0.1436106099094322	-0.1325411233345017	-0.04730944517666774	-0.01751645132400585	1.2775971743302	-0.2319217336584787	-0.2319217336574992	-0.3585497075993284	-0.002436491569524347	0.1430266416386644	0.01246728038570205	1.831680612519441e-08	1.691642207321672e-08	-6.165169532715506e-08	-6.294769441990889e-09	4.028061495418052e-08	4.82678400488181e-10	1.254238500711399e-08
1.52	0.0824933861913825	0.005293698631081267	0.9246958504931522	0.281211491916481	-0.235849338378832	-0.3179197363182336	-0.7460403926138124	0.2883598851444715	0.2883598851444786	-0.03559774352282775	-0.1744880490686679	-0.01660195619035522	0.0569441926608318	0.2377474192998766	0.214871579248079	0.1110321064820513	-0.9393677646103988	0.1155605614735978	-0.2296791624020326	0.8716397080222633	-0.6997012771706	-0.6997012771705952	0.01088931477571915	-0.0004665923880223162	0.01424909125303872	0.1288256580530008	-0.1305885162143431	0.01520812037490254	-0.007399133982067648	-0.106721865925603	0.09711209485685843	0.02738143356899991	0.2350522811950779	-13.17197740402748	-11.85339897651772	4.026004626742762	-0.6233438378933369	-689.711696484873	-79.72272980631972	-23.27579750201028	-0.3033471868465578	0.2956339390602928	-0.1549628403576989	-0.06429909756341852	-0.05669318030603352	-0.001603780025250754	1.218305125246453	-0.1673136697019809	-0.1673136697019798	-0.3576587069483866	-0.0009737203556864529	0.152866433997095	0.006614455935887774	1.746398577510255e-08	2.346571027087958e-08	-5.925669339176818e-08	-6.660406516381061e-09	4.69081248914732e-08	1.044959744731416e-09	1.247172331055754e-08
1.53	0.08485564104200312	0.007456968657809953	0.925798276290863	0.2718152283688668	-0.2346969349027112	-0.3202163431629745	-0.7372643959747884	0.2813551814140084	0.2813551814140219	-0.03550731068984306	-0.1744927675442179	-0.01645191975580848	0.058232361616067	0.2346855976577519	0.2177584255962018	0.1094358282132758	-0.9397828945412557	0.1148964460421828	-0.2296132631349187	0.8834440273416035	-0.7011405002881552	-0.7011405002881421	0.007179406605988019	-0.0004741940289694074	0.01576495990755405	0.1287862048747071	-0.1243800835755008	0.01370766875847086	-0.007334417668513248	-0.1080187271111611	0.09862122954412024	0.0259776899797905	0.2293359348276636	-12.67329827263267	-11.34153927908267	3.956360598711435	-0.6312735760120722	-688.229067492437	-79.55898819290049	-23.19939979082188	-0.3102920709906391	0.2816084542577237	-0.1645325174446495	-0.01481084593139885	-0.07482767560527423	0.01504064694327423	1.144156469067737	-0.1173838065898476	-0.1173838065886206	-0.3803301145612098	-0.0002289780620102885	0.151963632432316	-0.01251348904642741	1.657271390085099e-08	3.034842717133801e-08	-5.663893617387703e-08	-7.054793123023518e-09	5.390357164264408e-08	1.680079980140447e-09	1.2388769821392e-08
1.54	0.08718673919258474	0.00964838684233372	0.9268842248664246	0.2624178753409274	-0.2335518839711143	-0.3225114202416702	-0.728373823915813	0.2743390540176078	0.2743390540176268	-0.03545451158707165	-0.1744974771545944	-0.0162865213244649	0.05951947838265236	0.2315160792918144	0.2205012108070952	0.1077366620522165	-0.9395856606754988	0.1140900525689233	-0.2293732091932593	0.894554792012541	-0.7019860103580133	-0.7019860103579919	0.003362568733227695	-0.0004648193538269492	0.01732149061221169	0.1286152203230361	-0.1181716509366598	0.01220721714204809	-0.00726970135499723	-0.1093155882967208	0.1001303642313846	0.02457394639059192	0.2236195884602458	-12.17604992410529	-10.82887621882626	3.885957089520701	-0.6559647666269951	-686.7667045549537	-79.40002177045271	-23.11736192601492	-0.3248865316091087	0.2668217116143999	-0.1755404188144713	0.05817366175936071	-0.08514878867492294	0.03322715488392077	1.079594195565902	-0.04857106016257668	-0.04857106016257667	-0.3790446475542247	0.002421542862293733	0.1609988440255397	-0.01969181873957308	1.562114014787812e-08	3.755764053649658e-08	-5.389317850719957e-08	-7.40118066024773e-09	6.102006287232026e-08	2.393136751510926e-09	1.230983665051502e-08
